{
    "asset" : {
        "generator" : "Khronos glTF Blender I/O v1.5.17",
        "version" : "2.0"
    },
    "scene" : 0,
    "scenes" : [
        {
            "name" : "Scene",
            "nodes" : [
                0
            ]
        }
    ],
    "nodes" : [
        {
            "mesh" : 0,
            "name" : "swamp-underland-MERGED.001"
        }
    ],
    "materials" : [
        {
            "alphaCutoff" : 1,
            "alphaMode" : "MASK",
            "doubleSided" : true,
            "name" : "swamp-underland",
            "pbrMetallicRoughness" : {
                "baseColorTexture" : {
                    "index" : 0
                },
                "metallicFactor" : 0
            }
        }
    ],
    "meshes" : [
        {
            "name" : "swamp-grass-shore.064",
            "primitives" : [
                {
                    "attributes" : {
                        "POSITION" : 0,
                        "NORMAL" : 1,
                        "TEXCOORD_0" : 2
                    },
                    "indices" : 3,
                    "material" : 0
                }
            ]
        }
    ],
    "textures" : [
        {
            "sampler" : 0,
            "source" : 0
        }
    ],
    "images" : [
        {
            "bufferView" : 4,
            "mimeType" : "image/png",
            "name" : "swamp-grass-shore"
        }
    ],
    "accessors" : [
        {
            "bufferView" : 0,
            "componentType" : 5126,
            "count" : 138,
            "max" : [
                3.200000762939453,
                -0.09999999403953552,
                7.999996185302734
            ],
            "min" : [
                -8.000000953674316,
                -0.7000000476837158,
                -8.000005722045898
            ],
            "type" : "VEC3"
        },
        {
            "bufferView" : 1,
            "componentType" : 5126,
            "count" : 138,
            "type" : "VEC3"
        },
        {
            "bufferView" : 2,
            "componentType" : 5126,
            "count" : 138,
            "type" : "VEC2"
        },
        {
            "bufferView" : 3,
            "componentType" : 5123,
            "count" : 294,
            "type" : "SCALAR"
        }
    ],
    "bufferViews" : [
        {
            "buffer" : 0,
            "byteLength" : 1656,
            "byteOffset" : 0
        },
        {
            "buffer" : 0,
            "byteLength" : 1656,
            "byteOffset" : 1656
        },
        {
            "buffer" : 0,
            "byteLength" : 1104,
            "byteOffset" : 3312
        },
        {
            "buffer" : 0,
            "byteLength" : 588,
            "byteOffset" : 4416
        },
        {
            "buffer" : 0,
            "byteLength" : 1095,
            "byteOffset" : 5004
        }
    ],
    "samplers" : [
        {
            "magFilter" : 9728,
            "minFilter" : 9984,
            "wrapS" : 33071,
            "wrapT" : 33071
        }
    ],
    "buffers" : [
        {
            "byteLength" : 6100,
            "uri" : "data:application/octet-stream;base64,"
        }
    ]
}
