{
    "asset" : {
        "generator" : "Khronos glTF Blender I/O v1.5.17",
        "version" : "2.0"
    },
    "scene" : 0,
    "scenes" : [
        {
            "name" : "Scene",
            "nodes" : [
                0,
                1,
                2
            ]
        }
    ],
    "nodes" : [
        {
            "mesh" : 0,
            "name" : "Stones.002"
        },
        {
            "mesh" : 1,
            "name" : "Stones.003"
        },
        {
            "mesh" : 2,
            "name" : "Stones.004",
            "rotation" : [
                0,
                0.37835806608200073,
                0,
                0.9256592988967896
            ]
        }
    ],
    "materials" : [
        {
            "alphaCutoff" : 1,
            "alphaMode" : "MASK",
            "doubleSided" : true,
            "name" : "Stones",
            "pbrMetallicRoughness" : {
                "baseColorTexture" : {
                    "index" : 0
                },
                "metallicFactor" : 0
            }
        }
    ],
    "meshes" : [
        {
            "name" : "Stones.002",
            "primitives" : [
                {
                    "attributes" : {
                        "POSITION" : 0,
                        "NORMAL" : 1,
                        "TEXCOORD_0" : 2
                    },
                    "indices" : 3,
                    "material" : 0
                }
            ]
        },
        {
            "name" : "Stones.014",
            "primitives" : [
                {
                    "attributes" : {
                        "POSITION" : 4,
                        "NORMAL" : 5,
                        "TEXCOORD_0" : 6
                    },
                    "indices" : 3,
                    "material" : 0
                }
            ]
        },
        {
            "name" : "Stones.015",
            "primitives" : [
                {
                    "attributes" : {
                        "POSITION" : 7,
                        "NORMAL" : 8,
                        "TEXCOORD_0" : 9
                    },
                    "indices" : 3,
                    "material" : 0
                }
            ]
        }
    ],
    "textures" : [
        {
            "sampler" : 0,
            "source" : 0
        }
    ],
    "images" : [
        {
            "bufferView" : 4,
            "mimeType" : "image/png",
            "name" : "Stones-normalized"
        }
    ],
    "accessors" : [
        {
            "bufferView" : 0,
            "componentType" : 5126,
            "count" : 120,
            "max" : [
                -2.9118289947509766,
                0.9766666293144226,
                3.5717408657073975
            ],
            "min" : [
                -4.51182746887207,
                0.009999999776482582,
                1.9717423915863037
            ],
            "type" : "VEC3"
        },
        {
            "bufferView" : 1,
            "componentType" : 5126,
            "count" : 120,
            "type" : "VEC3"
        },
        {
            "bufferView" : 2,
            "componentType" : 5126,
            "count" : 120,
            "type" : "VEC2"
        },
        {
            "bufferView" : 3,
            "componentType" : 5123,
            "count" : 180,
            "type" : "SCALAR"
        },
        {
            "bufferView" : 5,
            "componentType" : 5126,
            "count" : 120,
            "max" : [
                -1.6107561588287354,
                0.9766666293144226,
                -1.7058837413787842
            ],
            "min" : [
                -3.210754632949829,
                0.009999984875321388,
                -3.305882215499878
            ],
            "type" : "VEC3"
        },
        {
            "bufferView" : 6,
            "componentType" : 5126,
            "count" : 120,
            "type" : "VEC3"
        },
        {
            "bufferView" : 7,
            "componentType" : 5126,
            "count" : 120,
            "type" : "VEC2"
        },
        {
            "bufferView" : 8,
            "componentType" : 5126,
            "count" : 120,
            "max" : [
                0.9195666313171387,
                0.9766666889190674,
                -5.155873775482178
            ],
            "min" : [
                -0.6804318428039551,
                0.01000005193054676,
                -6.7558722496032715
            ],
            "type" : "VEC3"
        },
        {
            "bufferView" : 9,
            "componentType" : 5126,
            "count" : 120,
            "type" : "VEC3"
        },
        {
            "bufferView" : 10,
            "componentType" : 5126,
            "count" : 120,
            "type" : "VEC2"
        }
    ],
    "bufferViews" : [
        {
            "buffer" : 0,
            "byteLength" : 1440,
            "byteOffset" : 0
        },
        {
            "buffer" : 0,
            "byteLength" : 1440,
            "byteOffset" : 1440
        },
        {
            "buffer" : 0,
            "byteLength" : 960,
            "byteOffset" : 2880
        },
        {
            "buffer" : 0,
            "byteLength" : 360,
            "byteOffset" : 3840
        },
        {
            "buffer" : 0,
            "byteLength" : 1264,
            "byteOffset" : 4200
        },
        {
            "buffer" : 0,
            "byteLength" : 1440,
            "byteOffset" : 5464
        },
        {
            "buffer" : 0,
            "byteLength" : 1440,
            "byteOffset" : 6904
        },
        {
            "buffer" : 0,
            "byteLength" : 960,
            "byteOffset" : 8344
        },
        {
            "buffer" : 0,
            "byteLength" : 1440,
            "byteOffset" : 9304
        },
        {
            "buffer" : 0,
            "byteLength" : 1440,
            "byteOffset" : 10744
        },
        {
            "buffer" : 0,
            "byteLength" : 960,
            "byteOffset" : 12184
        }
    ],
    "samplers" : [
        {
            "magFilter" : 9728,
            "minFilter" : 9984,
            "wrapS" : 33071,
            "wrapT" : 33071
        }
    ],
    "buffers" : [
        {
            "byteLength" : 13144,
            "uri" : "data:application/octet-stream;base64,"
        }
    ]
}
