{
    "asset" : {
        "generator" : "Khronos glTF Blender I/O v1.5.17",
        "version" : "2.0"
    },
    "scene" : 0,
    "scenes" : [
        {
            "name" : "Scene",
            "nodes" : [
                0
            ]
        }
    ],
    "nodes" : [
        {
            "mesh" : 0,
            "name" : "swamp-water-bottom-MERGED"
        }
    ],
    "materials" : [
        {
            "alphaCutoff" : 1,
            "alphaMode" : "MASK",
            "doubleSided" : true,
            "name" : "swamp-land",
            "pbrMetallicRoughness" : {
                "baseColorTexture" : {
                    "index" : 0
                },
                "metallicFactor" : 0
            }
        }
    ],
    "meshes" : [
        {
            "name" : "swamp-land.190",
            "primitives" : [
                {
                    "attributes" : {
                        "POSITION" : 0,
                        "NORMAL" : 1,
                        "TEXCOORD_0" : 2
                    },
                    "indices" : 3,
                    "material" : 0
                }
            ]
        }
    ],
    "textures" : [
        {
            "sampler" : 0,
            "source" : 0
        }
    ],
    "images" : [
        {
            "bufferView" : 4,
            "mimeType" : "image/png",
            "name" : "swamp-land"
        }
    ],
    "accessors" : [
        {
            "bufferView" : 0,
            "componentType" : 5126,
            "count" : 156,
            "max" : [
                8.000000953674316,
                -0.699999988079071,
                8.00000286102295
            ],
            "min" : [
                -4.76837158203125e-07,
                -0.699999988079071,
                -8.00000286102295
            ],
            "type" : "VEC3"
        },
        {
            "bufferView" : 1,
            "componentType" : 5126,
            "count" : 156,
            "type" : "VEC3"
        },
        {
            "bufferView" : 2,
            "componentType" : 5126,
            "count" : 156,
            "type" : "VEC2"
        },
        {
            "bufferView" : 3,
            "componentType" : 5123,
            "count" : 258,
            "type" : "SCALAR"
        }
    ],
    "bufferViews" : [
        {
            "buffer" : 0,
            "byteLength" : 1872,
            "byteOffset" : 0
        },
        {
            "buffer" : 0,
            "byteLength" : 1872,
            "byteOffset" : 1872
        },
        {
            "buffer" : 0,
            "byteLength" : 1248,
            "byteOffset" : 3744
        },
        {
            "buffer" : 0,
            "byteLength" : 516,
            "byteOffset" : 4992
        },
        {
            "buffer" : 0,
            "byteLength" : 648,
            "byteOffset" : 5508
        }
    ],
    "samplers" : [
        {
            "magFilter" : 9728,
            "minFilter" : 9984,
            "wrapS" : 33071,
            "wrapT" : 33071
        }
    ],
    "buffers" : [
        {
            "byteLength" : 6156,
            "uri" : "data:application/octet-stream;base64,"
        }
    ]
}
